<svg viewBox="0 0 20 20" fill="none" xmlns="http://www.w3.org/2000/svg"><path fill-rule="evenodd" clip-rule="evenodd" d="M9.4401 0.672311C8.76402 0.731551 8.3495 0.792231 7.8829 0.900191C5.60798 1.42659 3.59138 2.81123 2.27602 4.75001C1.21074 6.32017 0.660645 8.10801 0.660645 10C0.660645 11.969 1.2569 13.8258 2.40754 15.44C3.71762 17.2779 5.70588 18.6027 7.9101 19.1066C9.41098 19.4496 11.0525 19.4106 12.5201 18.9971C14.728 18.375 16.6091 16.982 17.8637 15.04C18.2025 14.5158 18.4458 14.0384 18.6997 13.4C19.376 11.6995 19.5222 9.72791 19.1066 7.91001C18.6371 5.85579 17.459 3.99209 15.8001 2.67903C14.4019 1.57237 12.7722 0.906191 10.9801 0.708811C10.7062 0.678631 9.65276 0.653671 9.4401 0.672311ZM10.1406 7.44344C10.3953 7.41108 10.612 7.29468 10.8032 7.08754C11.0446 6.826 11.1346 6.4668 11.0493 6.10502C10.9869 5.84006 10.7871 5.57542 10.5387 5.42852C10.4075 5.35092 10.1564 5.28316 10.0001 5.28316C9.84386 5.28316 9.59282 5.35092 9.46156 5.42852C9.21316 5.57542 9.01338 5.84006 8.95094 6.10502C8.86566 6.4668 8.95566 6.826 9.19708 7.08754C9.45022 7.36178 9.7861 7.48848 10.1406 7.44344ZM10.7392 14.0804C10.6894 14.3872 10.4482 14.6443 10.1562 14.7018C10.0348 14.7257 9.98048 14.726 9.86002 14.7031C9.55154 14.6446 9.31228 14.3958 9.26108 14.0804C9.23502 13.9197 9.2332 9.74666 9.25914 9.56738C9.29498 9.31948 9.44772 9.11116 9.67602 8.99878C9.79842 8.93852 9.82488 8.93316 10.0001 8.93316C10.1754 8.93316 10.2019 8.93852 10.3243 8.99878C10.5526 9.11116 10.7053 9.31948 10.7411 9.56738C10.7671 9.74666 10.7653 13.9197 10.7392 14.0804Z" fill="currentColor"/></svg>
